:SAMPLES-PER-SECOND 30
:FULLY-SPECIFIED
:DEGREES
261
root  6.150310997 33.99377658 2.259999936 -5.899993896 -43.80700684 -10.49099731
lowerback  9.463479996 1.80230999 -7.325489998
upperback  3.351429939 1.588459969 -2.316040039
thorax  -1.941689968 0.7428219914 1.530689955
lowerneck  -6.303639889 5.1730299 -4.813119888
upperneck  11.76189995 6.24710989 10.53759956
head  4.023349762 3.454790115 4.337440014
lclavicle  0 -9.442270133e-015 7.951389973e-016
lhumerus  28.35659981 -22.30730057 77.79989624
lradius  1.602218622e-031 -3.146702961e-031 116.9840012
lwrist  -1.412450015e-030 -1.765562519e-031 10.81340027
lhand  -1.496451383e-031 -27.76390076 20.11240005
lfingers  90 7.125020027 -90
lthumb  89.89689403 5.08795885 91.16245106
rclavicle  0 -9.442270133e-015 7.951389973e-016
rhumerus  9.325880051 5.048769951 -79.45459747
rradius  -2.203959794e-031 2.758877537e-031 128.6199951
rwrist  0 6.179468817e-031 -42.37250137
rhand  -7.920061211e-032 -33.2840004 9.303460121
rfingers  -90 -7.125020027 -90
rthumb  -92.93752616 -24.25625642 -97.11982154
rfemur  -2.347120047 13.12440014 11.00119972
rtibia  -0 0 72.01049805
rfoot  -6.960207336e-032 -17.96509933 -2.842159986
rtoes  5.373923086 19.29304026 -105.8922705
lfemur  -25.20960045 -1.293439984 11.51469994
ltibia  -0 0 67.26290131
lfoot  -0 -22.3470993 -7.756539822
ltoes  -4.250644065 -19.5611806 -102.515957
262
root  6.229089001 34.1655551 2.237244478 -5.033996582 -43.02099609 -10.31500244
lowerback  9.560660362 1.790779948 -7.504270077
upperback  3.551460028 1.558169961 -2.263210058
thorax  -1.78876996 0.7169449925 1.689049959
lowerneck  -6.294419765 5.100379944 -4.98706007
upperneck  11.2954998 6.206719875 10.47609997
head  3.880949974 3.419770002 4.330440044
lclavicle  0 -9.442270133e-015 7.951389973e-016
lhumerus  27.5897007 -22.14299965 78.14600372
lradius  1.626390891e-031 -3.134277701e-031 117.4250031
lwrist  -1.412450015e-030 -0 11.38829994
lhand  -1.496451383e-031 -27.76390076 20.11240005
lfingers  90 7.125020027 -90
lthumb  89.89689403 5.08795885 91.16245106
rclavicle  0 -9.442270133e-015 7.951389973e-016
rhumerus  8.788430214 5.204090118 -79.39309692
rradius  -2.244978021e-031 2.725604102e-031 129.477005
rwrist  1.412450015e-030 5.296687558e-031 -41.6794014
rhand  -7.920061211e-032 -33.2840004 9.303460121
rfingers  -90 -7.125020027 -90
rthumb  -92.93752616 -24.25625642 -97.11982154
rfemur  -2.835870028 12.71759987 11.1487999
rtibia  -0 0 71.37879944
rfoot  -4.656558369e-032 -18.5781002 -4.220359802
rtoes  5.373923086 19.29304026 -105.8922705
lfemur  -26.41250038 -1.356619954 11.15869999
ltibia  -0 0 66.62310028
lfoot  -0 -21.89690018 -7.634349823
ltoes  -4.250644065 -19.5611806 -102.515957
263
root  6.30891079 34.35644315 2.21260664 -4.009994507 -42.50999451 -10.29299927
lowerback  9.567119598 1.881010056 -7.419239998
upperback  3.689029932 1.693920016 -2.19250989
thorax  -1.660060048 0.7774090171 1.701539993
lowerneck  -5.817019939 5.036530018 -5.366859913
upperneck  10.59819984 6.177949905 10.61779976
head  3.575239897 3.379709959 4.396709919
lclavicle  0 -9.442270133e-015 7.951389973e-016
lhumerus  26.57570076 -22.0095005 78.60870361
lradius  1.643324944e-031 -3.125432316e-031 117.7350006
lwrist  -7.062250077e-031 -1.765562519e-031 12.01080036
lhand  -1.496451383e-031 -27.76390076 20.11240005
lfingers  90 7.125020027 -90
lthumb  89.89689403 5.08795885 91.16245106
rclavicle  0 -9.442270133e-015 7.951389973e-016
rhumerus  8.094479561 5.295479774 -79.53910065
rradius  -2.27970949e-031 2.696621716e-031 130.2109985
rwrist  7.062250077e-031 3.531125038e-031 -40.93460083
rhand  -7.920061211e-032 -33.2840004 9.303460121
rfingers  -90 -7.125020027 -90
rthumb  -92.93752616 -24.25625642 -97.11982154
rfemur  -3.498270035 12.56089973 11.48029995
rtibia  -0 0 70.70459747
rfoot  -4.669364988e-032 -19.0401001 -5.645850182
rtoes  5.373923086 19.29304026 -105.8922705
lfemur  -27.41080093 -1.23300004 10.98289967
ltibia  -0 0 65.82019806
lfoot  -0 -21.12929916 -7.872920036
ltoes  -4.250644065 -19.5611806 -102.515957
264
root  6.381666379 34.58422263 2.186577714 -3.134002686 -42.08900452 -10.12399292
lowerback  9.559849739 2.045779943 -7.341330051
upperback  3.834379911 1.926049948 -2.196480036
thorax  -1.521409988 0.8852080107 1.630100012
lowerneck  -5.17979002 4.94382 -5.420249939
upperneck  9.86166954 6.101480007 10.45100021
head  3.258960009 3.308979988 4.309100151
lclavicle  0 -9.442270133e-015 7.951389973e-016
lhumerus  25.43000031 -21.90279961 78.95130157
lradius  1.652482073e-031 -3.120600429e-031 117.9029999
lwrist  -1.412450015e-030 -1.765562519e-031 12.51650047
lhand  -1.496451383e-031 -27.76390076 20.11240005
lfingers  90 7.125020027 -90
lthumb  89.89689403 5.08795885 91.16245106
rclavicle  0 -9.442270133e-015 7.951389973e-016
rhumerus  7.261879921 5.335169792 -79.74980164
rradius  -2.308848688e-031 2.671715137e-031 130.8329926
rwrist  7.062250077e-031 1.765562519e-031 -40.13199997
rhand  -7.920061211e-032 -33.2840004 9.303460121
rfingers  -90 -7.125020027 -90
rthumb  -92.93752616 -24.25625642 -97.11982154
rfemur  -4.09469986 12.49289989 11.74380016
rtibia  -0 0 69.94139862
rfoot  -0 -18.55360031 -7.630169868
rtoes  5.373923086 19.29304026 -105.8922705
lfemur  -28.17499924 -1.173120022 10.66279984
ltibia  -0 0 64.8184967
lfoot  -0 -19.8064003 -8.507019997
ltoes  -4.250644065 -19.5611806 -102.515957
265
root  6.442911043 34.86888916 2.194251038 -2.731994629 -41.56399536 -9.345001221
lowerback  9.456219673 2.197269917 -7.520959854
upperback  4.114029884 2.126110077 -2.414109945
thorax  -1.18561995 0.9655470252 1.489400029
lowerneck  -4.835030079 4.830309868 -5.254330158
upperneck  9.173780441 5.987150192 10.23330021
head  3.019249916 3.23307991 4.182869911
lclavicle  0 -9.442270133e-015 7.951389973e-016
lhumerus  24.40710068 -21.83049965 78.9571991
lradius  1.653789195e-031 -3.119907905e-031 117.927002
lwrist  0 -1.765562519e-031 12.94419956
lhand  -1.496451383e-031 -27.76390076 20.11240005
lfingers  90 7.125020027 -90
lthumb  89.89689403 5.08795885 91.16245106
rclavicle  0 -9.442270133e-015 7.951389973e-016
rhumerus  6.529970169 5.362289906 -80.10109711
rradius  -2.326424817e-031 2.656424591e-031 131.2109985
rwrist  7.062250077e-031 1.765562519e-031 -39.34379959
rhand  -7.920061211e-032 -33.2840004 9.303460121
rfingers  -90 -7.125020027 -90
rthumb  -92.93752616 -24.25625642 -97.11982154
rfemur  -4.419479847 12.26210022 11.43700027
rtibia  -0 0 69.09829712
rfoot  -0 -17.9647007 -9.658189774
rtoes  5.373923086 19.29304026 -105.8922705
lfemur  -28.67560005 -1.451709986 9.712650299
ltibia  -0 0 63.60309982
lfoot  -0 -18.71319962 -8.725190163
ltoes  -4.250644065 -19.5611806 -102.515957
266
root  6.514622095 35.16622228 2.196675586 -2.360992432 -40.98599243 -8.440994263
lowerback  9.532050133 2.273969889 -7.773660183
upperback  4.342649937 2.202039957 -2.592619896
thorax  -0.9946600199 0.9883440137 1.437299967
lowerneck  -4.697080135 4.784900188 -5.257249832
upperneck  8.586070061 5.974619865 10.07400036
head  2.828229904 3.211060047 4.114840031
lclavicle  0 -9.442270133e-015 7.951389973e-016
lhumerus  22.92830086 -21.5781002 79.251297
lradius  1.650303031e-031 -3.121753344e-031 117.862999
lwrist  -7.062250077e-031 1.765562519e-031 13.01410007
lhand  -1.496451383e-031 -27.76390076 20.11240005
lfingers  90 7.125020027 -90
lthumb  89.89689403 5.08795885 91.16245106
rclavicle  0 -9.442270133e-015 7.951389973e-016
rhumerus  5.823209763 5.601840019 -80.48880005
rradius  -2.337347158e-031 2.64681928e-031 131.4470062
rwrist  7.062250077e-031 3.531125038e-031 -38.60139847
rhand  -7.920061211e-032 -33.2840004 9.303460121
rfingers  -90 -7.125020027 -90
rthumb  -92.93752616 -24.25625642 -97.11982154
rfemur  -4.839379787 11.89490032 11.00689983
rtibia  -0 0 68.22740173
rfoot  -0 -17.72369957 -11.38770008
rtoes  5.373923086 19.29304026 -105.8922705
lfemur  -29.14819908 -1.867089987 8.658329964
ltibia  -0 0 62.15299988
lfoot  -0 -18.50309944 -8.005729675
ltoes  -4.250644065 -19.5611806 -102.515957
